<?xml version="1.0" encoding="utf-8"?>
<!-- Generator: Adobe Illustrator 22.1.0, SVG Export Plug-In . SVG Version: 6.00 Build 0)  -->
<svg version="1.0" id="Layer_1" xmlns="http://www.w3.org/2000/svg" xmlns:xlink="http://www.w3.org/1999/xlink" x="0px" y="0px"
	 viewBox="0 0 100 100" enable-background="new 0 0 100 100" xml:space="preserve">
<polygon points="5.6,4.2 5.6,68.8 26.1,68.8 26.1,23.2 71.2,23.2 71.2,4.2 "/>
<g>
	<g>
		<path fill="#FFCE51" d="M43.3,26.9c0,7.5-6.2,13.6-13.8,13.6s-13.8-6.1-13.8-13.6s6.2-13.6,13.8-13.6
			C37.1,13.4,43.3,19.4,43.3,26.9"/>
	</g>
</g>
<polygon points="95,95.8 95,31.2 74.6,31.2 74.6,76.8 29.5,76.8 29.5,95.8 "/>
<path fill="#FFCE51" d="M57.4,73.1c0-7.5,6.2-13.6,13.8-13.6c7.6,0,13.8,6.1,13.8,13.6s-6.2,13.6-13.8,13.6
	C63.5,86.7,57.4,80.6,57.4,73.1"/>
</svg>
